<svg width="226" height="223" viewBox="0 0 226 223" fill="none" xmlns="http://www.w3.org/2000/svg">
<path fill-rule="evenodd" clip-rule="evenodd" d="M1.55701 2.22301C0.201007 4.15801 0 10.551 0 51.723C0 97.667 0.056 99.056 2 101C3.945 102.945 5.333 103 52.345 103C97.911 103 100.785 102.895 102.345 101.171C103.837 99.523 104 94.597 104 51.243C104 8.849 103.814 2.956 102.429 1.571C101.043 0.185999 95.081 0 51.985 0H3.11301L1.55701 2.22301ZM124.313 0.785995C121.336 2.679 121 7.817 121 51.5C121 95.183 121.336 100.321 124.313 102.214C124.966 102.63 147.212 102.976 173.75 102.985C220.677 103 222.055 102.945 224 101C225.944 99.056 226 97.667 226 51.5C226 5.333 225.944 3.944 224 2C222.055 0.0549999 220.677 -6.10016e-07 173.75 0.0149994C147.212 0.0239994 124.966 0.369995 124.313 0.785995ZM1.55701 122.223C0.201007 124.158 0.00199939 130.511 0.0149994 171.473C0.0239994 197.338 0.360999 218.995 0.764999 219.6C2.898 222.794 6.04301 223 52.712 223C93.49 223 99.843 222.798 101.777 221.443L104 219.887V170.978C104 123.648 103.938 122.037 102.066 121.035C100.809 120.362 83.149 120 51.622 120H3.11301L1.55701 122.223ZM123.441 121.419C121.566 122.79 121.5 124.479 121.5 171.007V219.176L123.861 221.088C126.11 222.91 128.433 223 173.177 223C219.958 223 223.102 222.795 225.235 219.6C225.639 218.995 225.976 197.338 225.985 171.473C225.998 130.511 225.799 124.158 224.443 122.223L222.887 120H174.134C133.611 120 125.055 120.24 123.441 121.419Z" fill="black"/>
</svg>
